# xmcd
#
# Track frame offsets:
#	180
#	17073
#	34586
#	52592
#	78247
#	94053
#	106804
#	124067
#	136409
#	155843
#	169034
#	187853
#
# Disc length: 2727 seconds
#
# Revision: 1
# Processed by: cddbd v1.5.2PL0 Copyright (c) Steve Scherf et al.
# Submitted via: audiograbber 1.83.01
#
DISCID=880aa50c
DTITLE=Chic Street Man - Guns Away
DYEAR=1900
DGENRE=
TTITLE0=Master Plan
TTITLE1=Guns Away
TTITLE2=Celina
TTITLE3=Gladys
TTITLE4=Slow Down
TTITLE5=Hey Baby
TTITLE6=One Love Woman
TTITLE7=Be You Not A Lady
TTITLE8=The Moon Is Rising
TTITLE9=Give It Back
TTITLE10=I'm Losin' You
TTITLE11=Solace
EXTD=
EXTT0=
EXTT1=
EXTT2=
EXTT3=
EXTT4=
EXTT5=
EXTT6=
EXTT7=
EXTT8=
EXTT9=
EXTT10=
EXTT11=
PLAYORDER=
